<?xml version="1.0" encoding="UTF-8" standalone="no"?>
<!DOCTYPE svg PUBLIC "-//W3C//DTD SVG 1.1//EN" "http://www.w3.org/Graphics/SVG/1.1/DTD/svg11.dtd">
<svg width="100%" height="100%" viewBox="0 0 4536 2552" version="1.1" xmlns="http://www.w3.org/2000/svg" xmlns:xlink="http://www.w3.org/1999/xlink" xml:space="preserve" xmlns:serif="http://www.serif.com/" style="fill-rule:evenodd;clip-rule:evenodd;stroke-linecap:round;stroke-linejoin:round;stroke-miterlimit:1.5;">
    <g transform="matrix(1,0,0,1,-5520,0)">
        <g id="Artboard3" transform="matrix(0.853866,0,0,0.977655,806.279,0)">
            <rect x="5520.45" y="0" width="5312.11" height="2609.77" style="fill:none;"/>
            <clipPath id="_clip1">
                <rect x="5520.45" y="0" width="5312.11" height="2609.77"/>
            </clipPath>
            <g clip-path="url(#_clip1)">
                <g transform="matrix(3.7843,0,0,1.79381,-29666.1,-13752.7)">
                    <rect x="9225.09" y="7600.7" width="1568.5" height="1568.5" style="fill:rgb(45,51,57);stroke:rgb(114,128,144);stroke-width:35.26px;"/>
                </g>
                <g transform="matrix(10.5319,4.16306,-4.7666,9.19841,6311.6,-15543.8)">
                    <g transform="matrix(50,0,0,50,693.895,1477.97)">
                        <path d="M0.32,0.009C0.471,0.009 0.542,-0.107 0.542,-0.234L0.542,-0.283C0.542,-0.41 0.471,-0.526 0.32,-0.526C0.261,-0.526 0.217,-0.506 0.185,-0.474L0.185,-0.517L0.08,-0.517L0.08,0.209L0.185,0.209L0.185,-0.043C0.217,-0.011 0.261,0.009 0.32,0.009ZM0.185,-0.234L0.185,-0.283C0.185,-0.36 0.224,-0.427 0.311,-0.427C0.398,-0.427 0.437,-0.36 0.437,-0.283L0.437,-0.234C0.437,-0.157 0.398,-0.091 0.311,-0.091C0.224,-0.091 0.185,-0.157 0.185,-0.234Z" style="fill:rgb(61,67,74);fill-rule:nonzero;"/>
                    </g>
                    <g transform="matrix(50,0,0,50,722.995,1477.97)">
                        <path d="M0.07,-0L0.175,-0L0.175,-0.517L0.07,-0.517L0.07,-0ZM0.052,-0.652C0.052,-0.611 0.083,-0.581 0.123,-0.581C0.162,-0.581 0.194,-0.611 0.194,-0.652C0.194,-0.693 0.162,-0.721 0.123,-0.721C0.083,-0.721 0.052,-0.693 0.052,-0.652Z" style="fill:rgb(61,67,74);fill-rule:nonzero;"/>
                    </g>
                    <g transform="matrix(50,0,0,50,735.145,1477.97)">
                        <path d="M0.08,-0L0.185,-0L0.185,-0.303C0.185,-0.365 0.222,-0.426 0.301,-0.426C0.381,-0.426 0.416,-0.37 0.416,-0.303L0.416,-0L0.521,-0L0.521,-0.338C0.521,-0.442 0.45,-0.526 0.331,-0.526C0.257,-0.526 0.206,-0.488 0.185,-0.446L0.185,-0.517L0.08,-0.517L0.08,-0Z" style="fill:rgb(61,67,74);fill-rule:nonzero;"/>
                    </g>
                    <g transform="matrix(50,0,0,50,764.695,1477.97)">
                        <path d="M0.254,0.009C0.386,0.009 0.461,-0.056 0.461,-0.149C0.461,-0.229 0.414,-0.288 0.309,-0.307L0.223,-0.322C0.188,-0.328 0.166,-0.343 0.166,-0.373C0.166,-0.403 0.195,-0.43 0.252,-0.43C0.308,-0.43 0.344,-0.404 0.346,-0.358L0.451,-0.358C0.452,-0.453 0.381,-0.526 0.252,-0.526C0.132,-0.526 0.061,-0.457 0.061,-0.37C0.061,-0.287 0.111,-0.238 0.2,-0.222L0.282,-0.207C0.336,-0.198 0.356,-0.179 0.356,-0.149C0.356,-0.116 0.326,-0.091 0.254,-0.091C0.181,-0.091 0.148,-0.124 0.146,-0.172L0.04,-0.172C0.043,-0.06 0.123,0.009 0.254,0.009Z" style="fill:rgb(61,67,74);fill-rule:nonzero;"/>
                    </g>
                    <g transform="matrix(50,0,0,50,789.895,1477.97)">
                        <path d="M0.259,0.009C0.349,0.009 0.408,-0.032 0.452,-0.082L0.524,-0L0.654,-0L0.654,-0.01L0.516,-0.169L0.666,-0.388L0.666,-0.398L0.549,-0.398L0.448,-0.248L0.338,-0.375L0.348,-0.381C0.417,-0.424 0.46,-0.473 0.46,-0.545C0.46,-0.633 0.397,-0.709 0.287,-0.709C0.177,-0.708 0.112,-0.633 0.112,-0.545C0.112,-0.492 0.135,-0.448 0.173,-0.403L0.179,-0.396L0.173,-0.392C0.094,-0.345 0.04,-0.286 0.04,-0.195C0.04,-0.075 0.133,0.009 0.259,0.009ZM0.148,-0.195C0.148,-0.244 0.177,-0.275 0.221,-0.302L0.247,-0.318L0.385,-0.159C0.348,-0.115 0.311,-0.094 0.259,-0.094C0.192,-0.094 0.149,-0.137 0.148,-0.195ZM0.219,-0.545C0.219,-0.579 0.245,-0.609 0.287,-0.609C0.333,-0.609 0.355,-0.578 0.355,-0.545C0.355,-0.51 0.33,-0.486 0.296,-0.466L0.271,-0.451L0.269,-0.454C0.237,-0.49 0.219,-0.514 0.219,-0.545Z" style="fill:rgb(61,67,74);fill-rule:nonzero;"/>
                    </g>
                    <g transform="matrix(50,0,0,50,825.195,1477.97)">
                        <path d="M0.274,0.009C0.408,0.009 0.483,-0.078 0.495,-0.185L0.389,-0.185C0.379,-0.131 0.342,-0.091 0.274,-0.091C0.187,-0.091 0.145,-0.157 0.145,-0.234L0.145,-0.283C0.145,-0.36 0.187,-0.427 0.274,-0.427C0.347,-0.427 0.385,-0.382 0.391,-0.322L0.496,-0.322C0.488,-0.433 0.412,-0.526 0.274,-0.526C0.121,-0.526 0.04,-0.41 0.04,-0.283L0.04,-0.234C0.04,-0.107 0.121,0.009 0.274,0.009Z" style="fill:rgb(61,67,74);fill-rule:nonzero;"/>
                    </g>
                    <g transform="matrix(50,0,0,50,851.995,1477.97)">
                        <path d="M0.287,0.008C0.432,0.008 0.504,-0.09 0.504,-0.207L0.504,-0.517L0.399,-0.517L0.399,-0.21C0.399,-0.134 0.357,-0.091 0.287,-0.091C0.217,-0.091 0.175,-0.134 0.175,-0.21L0.175,-0.517L0.07,-0.517L0.07,-0.207C0.07,-0.09 0.142,0.008 0.287,0.008Z" style="fill:rgb(61,67,74);fill-rule:nonzero;"/>
                    </g>
                    <g transform="matrix(50,0,0,50,880.695,1477.97)">
                        <path d="M0.08,-0L0.185,-0L0.185,-0.281C0.185,-0.37 0.234,-0.412 0.308,-0.412L0.364,-0.412L0.364,-0.517L0.311,-0.517C0.239,-0.517 0.196,-0.469 0.185,-0.431L0.185,-0.517L0.08,-0.517L0.08,-0Z" style="fill:rgb(61,67,74);fill-rule:nonzero;"/>
                    </g>
                    <g transform="matrix(50,0,0,50,900.145,1477.97)">
                        <path d="M0.214,-0L0.335,-0L0.521,-0.507L0.521,-0.517L0.408,-0.517L0.275,-0.12L0.137,-0.517L0.025,-0.517L0.025,-0.507L0.214,-0Z" style="fill:rgb(61,67,74);fill-rule:nonzero;"/>
                    </g>
                    <g transform="matrix(50,0,0,50,926.695,1477.97)">
                        <path d="M0.269,0.009C0.406,0.009 0.477,-0.074 0.491,-0.165L0.386,-0.165C0.375,-0.12 0.338,-0.088 0.269,-0.088C0.188,-0.088 0.146,-0.141 0.144,-0.219L0.498,-0.219L0.498,-0.283C0.498,-0.408 0.428,-0.526 0.27,-0.526C0.117,-0.526 0.04,-0.408 0.04,-0.283L0.04,-0.234C0.04,-0.107 0.116,0.009 0.269,0.009ZM0.145,-0.309C0.152,-0.382 0.196,-0.432 0.27,-0.432C0.348,-0.432 0.388,-0.383 0.394,-0.309L0.145,-0.309Z" style="fill:rgb(61,67,74);fill-rule:nonzero;"/>
                    </g>
                    <g transform="matrix(50,0,0,50,953.595,1477.97)">
                        <path d="M0.254,0.009C0.386,0.009 0.461,-0.056 0.461,-0.149C0.461,-0.229 0.414,-0.288 0.309,-0.307L0.223,-0.322C0.188,-0.328 0.166,-0.343 0.166,-0.373C0.166,-0.403 0.195,-0.43 0.252,-0.43C0.308,-0.43 0.344,-0.404 0.346,-0.358L0.451,-0.358C0.452,-0.453 0.381,-0.526 0.252,-0.526C0.132,-0.526 0.061,-0.457 0.061,-0.37C0.061,-0.287 0.111,-0.238 0.2,-0.222L0.282,-0.207C0.336,-0.198 0.356,-0.179 0.356,-0.149C0.356,-0.116 0.326,-0.091 0.254,-0.091C0.181,-0.091 0.148,-0.124 0.146,-0.172L0.04,-0.172C0.043,-0.06 0.123,0.009 0.254,0.009Z" style="fill:rgb(61,67,74);fill-rule:nonzero;"/>
                    </g>
                </g>
                <g transform="matrix(1.20289,0.30054,-0.34411,1.05058,6355.03,-4136.71)">
                    <circle cx="1812.12" cy="4167.9" r="32.463" style="fill:rgb(45,51,57);"/>
                </g>
                <g transform="matrix(1.25114,0.000229746,-0.000263054,1.09273,4834.11,-3768.38)">
                    <circle cx="1812.12" cy="4167.9" r="32.463" style="fill:rgb(230,198,30);"/>
                </g>
                <g transform="matrix(1.17114,0,0,1.02286,4993.8,-3468.99)">
                    <rect x="1732.57" y="4062.93" width="132.899" height="135.548" style="fill:rgb(45,51,57);"/>
                </g>
            </g>
        </g>
    </g>
</svg>
