<?xml version="1.0" encoding="UTF-8" standalone="no"?>
<!DOCTYPE svg PUBLIC "-//W3C//DTD SVG 1.1//EN" "http://www.w3.org/Graphics/SVG/1.1/DTD/svg11.dtd">
<svg width="100%" height="100%" viewBox="0 0 2167 1510" version="1.1" xmlns="http://www.w3.org/2000/svg" xmlns:xlink="http://www.w3.org/1999/xlink" xml:space="preserve" xmlns:serif="http://www.serif.com/" style="fill-rule:evenodd;clip-rule:evenodd;stroke-linecap:round;stroke-linejoin:round;stroke-miterlimit:1.5;">
    <g transform="matrix(1,0,0,1,-6866.93,-294.05)">
        <g transform="matrix(0.853866,0,0,0.977655,806.279,0)">
            <g transform="matrix(1.17114,0,0,1.02286,4997.06,-3468.04)">
                <path d="M1797.61,3685.1L1794.33,4194.04C1795.41,4194.32 1824.01,4124.36 1871.62,4125.04C1942.44,4126.05 1948.51,4265.61 1948.31,4265.69C1944.55,4265.19 1977.31,4211.16 2044.54,4212.11C2180.28,4214.02 2192.72,4599.08 2191.91,4602.72C2188.86,4616.52 2180.61,4625.08 2169.92,4629.51C2146.39,4639.25 2123.24,4629.37 2104.33,4618.65C2067.08,4597.55 2064.38,4584.45 2064.07,4572.52C2063.71,4558.78 2066.08,4551.63 2068.71,4541.65C2080.56,4496.7 2187.59,4201.51 2272.95,4153.91C2414.04,4075.21 2504.8,4336.23 2501.09,4514.09C2499.91,4570.52 2400.41,4569.64 2377.26,4573.25C2350.79,4577.38 2298.28,4612.44 2294.47,4656.97C2291.82,4687.98 2319.95,4719.36 2354.78,4730.75C2388.3,4741.71 2431.69,4714.66 2451.88,4702.35C2452,4702.27 2570.48,4631.62 2570.48,4631.62C2570.48,4631.62 2930.61,4389.07 3114.26,4452.91C3297.92,4516.74 3492.67,5023.59 3492.67,5023.59C3492.72,5023.73 3346.29,5017.32 3346.29,5017.32L3412.86,5105.62L3338.96,5122.17L3361.18,5157.64L3335.62,5166.8L3341.65,5179.88C3343.8,5176.01 3329.24,5196.8 3331.37,5192.84C3481.06,4915.11 3772.63,4053.98 3960.28,4058.47" style="fill:none;stroke:rgb(35,31,32);stroke-width:1px;"/>
            </g>
        </g>
    </g>
</svg>
