<?xml version="1.0" encoding="UTF-8" standalone="no"?>
<!DOCTYPE svg PUBLIC "-//W3C//DTD SVG 1.1//EN" "http://www.w3.org/Graphics/SVG/1.1/DTD/svg11.dtd">
<svg width="100%" height="100%" viewBox="0 0 2626 1343" version="1.1" xmlns="http://www.w3.org/2000/svg" xmlns:xlink="http://www.w3.org/1999/xlink" xml:space="preserve" xmlns:serif="http://www.serif.com/" style="fill-rule:evenodd;clip-rule:evenodd;stroke-linejoin:round;stroke-miterlimit:2;">
    <g transform="matrix(1,0,0,1,-6413.68,-702.739)">
        <g transform="matrix(0.853866,0,0,0.977655,806.279,0)">
            <g transform="matrix(10.5319,4.16306,-4.7666,9.19841,6311.6,-15543.8)">
                <path d="M709.895,1478.42C706.945,1478.42 704.745,1477.42 703.145,1475.82L703.145,1488.42L697.895,1488.42L697.895,1452.12L703.145,1452.12L703.145,1454.27C704.745,1452.67 706.945,1451.67 709.895,1451.67C717.445,1451.67 720.995,1457.47 720.995,1463.82L720.995,1466.27C720.995,1472.62 717.445,1478.42 709.895,1478.42ZM703.145,1466.27C703.145,1470.12 705.095,1473.42 709.445,1473.42C713.795,1473.42 715.745,1470.12 715.745,1466.27L715.745,1463.82C715.745,1459.97 713.795,1456.62 709.445,1456.62C705.095,1456.62 703.145,1459.97 703.145,1463.82L703.145,1466.27ZM726.495,1477.97L726.495,1452.12L731.745,1452.12L731.745,1477.97L726.495,1477.97ZM739.145,1477.97L739.145,1452.12L744.395,1452.12L744.395,1455.67C745.445,1453.57 747.995,1451.67 751.695,1451.67C757.645,1451.67 761.195,1455.87 761.195,1461.07L761.195,1477.97L755.945,1477.97L755.945,1462.82C755.945,1459.47 754.195,1456.67 750.195,1456.67C746.245,1456.67 744.395,1459.72 744.395,1462.82L744.395,1477.97L739.145,1477.97ZM777.395,1478.42C770.845,1478.42 766.845,1474.97 766.695,1469.37L771.995,1469.37C772.095,1471.77 773.745,1473.42 777.395,1473.42C780.995,1473.42 782.495,1472.17 782.495,1470.52C782.495,1469.02 781.495,1468.07 778.795,1467.62L774.695,1466.87C770.245,1466.07 767.745,1463.62 767.745,1459.47C767.745,1455.12 771.295,1451.67 777.295,1451.67C783.745,1451.67 787.295,1455.32 787.245,1460.07L781.995,1460.07C781.895,1457.77 780.095,1456.47 777.295,1456.47C774.445,1456.47 772.995,1457.82 772.995,1459.32C772.995,1460.82 774.095,1461.57 775.845,1461.87L780.145,1462.62C785.395,1463.57 787.745,1466.52 787.745,1470.52C787.745,1475.17 783.995,1478.42 777.395,1478.42ZM802.845,1478.42C796.545,1478.42 791.895,1474.22 791.895,1468.22C791.895,1463.67 794.595,1460.72 798.545,1458.37L798.845,1458.17L798.545,1457.82C796.645,1455.57 795.495,1453.37 795.495,1450.72C795.495,1446.32 798.745,1442.57 804.245,1442.52C809.745,1442.52 812.895,1446.32 812.895,1450.72C812.895,1454.32 810.745,1456.77 807.295,1458.92L806.795,1459.22L812.295,1465.57L817.345,1458.07L823.195,1458.07L823.195,1458.57L815.695,1469.52L822.595,1477.47L822.595,1477.97L816.095,1477.97L812.495,1473.87C810.295,1476.37 807.345,1478.42 802.845,1478.42ZM797.295,1468.22C797.345,1471.12 799.495,1473.27 802.845,1473.27C805.445,1473.27 807.295,1472.22 809.145,1470.02L802.245,1462.07L800.945,1462.87C798.745,1464.22 797.295,1465.77 797.295,1468.22ZM800.845,1450.72C800.845,1452.27 801.745,1453.47 803.345,1455.27L803.445,1455.42L804.695,1454.67C806.395,1453.67 807.645,1452.47 807.645,1450.72C807.645,1449.07 806.545,1447.52 804.245,1447.52C802.145,1447.52 800.845,1449.02 800.845,1450.72ZM838.895,1478.42C831.245,1478.42 827.195,1472.62 827.195,1466.27L827.195,1463.82C827.195,1457.47 831.245,1451.67 838.895,1451.67C845.795,1451.67 849.595,1456.32 849.995,1461.87L844.745,1461.87C844.445,1458.87 842.545,1456.62 838.895,1456.62C834.545,1456.62 832.445,1459.97 832.445,1463.82L832.445,1466.27C832.445,1470.12 834.545,1473.42 838.895,1473.42C842.295,1473.42 844.145,1471.42 844.645,1468.72L849.945,1468.72C849.345,1474.07 845.595,1478.42 838.895,1478.42ZM866.345,1478.37C859.095,1478.37 855.495,1473.47 855.495,1467.62L855.495,1452.12L860.745,1452.12L860.745,1467.47C860.745,1471.27 862.845,1473.42 866.345,1473.42C869.845,1473.42 871.945,1471.27 871.945,1467.47L871.945,1452.12L877.195,1452.12L877.195,1467.62C877.195,1473.47 873.595,1478.37 866.345,1478.37ZM884.695,1477.97L884.695,1452.12L889.945,1452.12L889.945,1456.42C890.495,1454.52 892.645,1452.12 896.245,1452.12L898.895,1452.12L898.895,1457.37L896.095,1457.37C892.395,1457.37 889.945,1459.47 889.945,1463.92L889.945,1477.97L884.695,1477.97ZM910.845,1477.97L901.395,1452.62L901.395,1452.12L906.995,1452.12L913.895,1471.97L920.545,1452.12L926.195,1452.12L926.195,1452.62L916.895,1477.97L910.845,1477.97ZM940.145,1478.42C932.495,1478.42 928.695,1472.62 928.695,1466.27L928.695,1463.82C928.695,1457.57 932.545,1451.67 940.195,1451.67C948.095,1451.67 951.595,1457.57 951.595,1463.82L951.595,1467.02L933.895,1467.02C933.995,1470.92 936.095,1473.57 940.145,1473.57C943.595,1473.57 945.445,1471.97 945.995,1469.72L951.245,1469.72C950.545,1474.27 946.995,1478.42 940.145,1478.42ZM933.945,1462.52L946.395,1462.52C946.095,1458.82 944.095,1456.37 940.195,1456.37C936.495,1456.37 934.295,1458.87 933.945,1462.52ZM966.295,1478.42C959.745,1478.42 955.745,1474.97 955.595,1469.37L960.895,1469.37C960.995,1471.77 962.645,1473.42 966.295,1473.42C969.895,1473.42 971.395,1472.17 971.395,1470.52C971.395,1469.02 970.395,1468.07 967.695,1467.62L963.595,1466.87C959.145,1466.07 956.645,1463.62 956.645,1459.47C956.645,1455.12 960.195,1451.67 966.195,1451.67C972.645,1451.67 976.195,1455.32 976.145,1460.07L970.895,1460.07C970.795,1457.77 968.995,1456.47 966.195,1456.47C963.345,1456.47 961.895,1457.82 961.895,1459.32C961.895,1460.82 962.995,1461.57 964.745,1461.87L969.045,1462.62C974.295,1463.57 976.645,1466.52 976.645,1470.52C976.645,1475.17 972.895,1478.42 966.295,1478.42Z" style="fill:rgb(230,198,30);"/>
            </g>
        </g>
    </g>
</svg>
