<?xml version="1.0" encoding="UTF-8" standalone="no"?>
<!DOCTYPE svg PUBLIC "-//W3C//DTD SVG 1.1//EN" "http://www.w3.org/Graphics/SVG/1.1/DTD/svg11.dtd">
<svg width="100%" height="100%" viewBox="0 0 4536 2552" version="1.1" xmlns="http://www.w3.org/2000/svg" xmlns:xlink="http://www.w3.org/1999/xlink" xml:space="preserve" xmlns:serif="http://www.serif.com/" style="fill-rule:evenodd;clip-rule:evenodd;stroke-linecap:round;stroke-linejoin:round;stroke-miterlimit:1.5;">
    <g transform="matrix(1,0,0,1,-5520,0)">
        <g id="Artboard3" transform="matrix(0.853866,0,0,0.977655,806.279,0)">
            <rect x="5520.45" y="0" width="5312.11" height="2609.77" style="fill:none;"/>
            <clipPath id="_clip1">
                <rect x="5520.45" y="0" width="5312.11" height="2609.77"/>
            </clipPath>
            <g clip-path="url(#_clip1)">
                <g transform="matrix(3.7843,0,0,1.79381,-29666.1,-13752.7)">
                    <rect x="9225.09" y="7600.7" width="1568.5" height="1568.5" style="fill:rgb(45,51,57);stroke:rgb(114,128,144);stroke-width:35.26px;"/>
                </g>
                <g transform="matrix(10.5319,4.16306,-4.7666,9.19841,6311.6,-15543.8)">
                    <g transform="matrix(50,0,0,50,693.895,1477.97)">
                        <path d="M0.32,0.009C0.471,0.009 0.542,-0.107 0.542,-0.234L0.542,-0.283C0.542,-0.41 0.471,-0.526 0.32,-0.526C0.261,-0.526 0.217,-0.506 0.185,-0.474L0.185,-0.517L0.08,-0.517L0.08,0.209L0.185,0.209L0.185,-0.043C0.217,-0.011 0.261,0.009 0.32,0.009ZM0.185,-0.234L0.185,-0.283C0.185,-0.36 0.224,-0.427 0.311,-0.427C0.398,-0.427 0.437,-0.36 0.437,-0.283L0.437,-0.234C0.437,-0.157 0.398,-0.091 0.311,-0.091C0.224,-0.091 0.185,-0.157 0.185,-0.234Z" style="fill:rgb(61,67,74);fill-rule:nonzero;"/>
                    </g>
                    <g transform="matrix(50,0,0,50,722.995,1477.97)">
                        <path d="M0.07,-0L0.175,-0L0.175,-0.517L0.07,-0.517L0.07,-0ZM0.052,-0.652C0.052,-0.611 0.083,-0.581 0.123,-0.581C0.162,-0.581 0.194,-0.611 0.194,-0.652C0.194,-0.693 0.162,-0.721 0.123,-0.721C0.083,-0.721 0.052,-0.693 0.052,-0.652Z" style="fill:rgb(61,67,74);fill-rule:nonzero;"/>
                    </g>
                    <g transform="matrix(50,0,0,50,735.145,1477.97)">
                        <path d="M0.08,-0L0.185,-0L0.185,-0.303C0.185,-0.365 0.222,-0.426 0.301,-0.426C0.381,-0.426 0.416,-0.37 0.416,-0.303L0.416,-0L0.521,-0L0.521,-0.338C0.521,-0.442 0.45,-0.526 0.331,-0.526C0.257,-0.526 0.206,-0.488 0.185,-0.446L0.185,-0.517L0.08,-0.517L0.08,-0Z" style="fill:rgb(61,67,74);fill-rule:nonzero;"/>
                    </g>
                    <g transform="matrix(50,0,0,50,764.695,1477.97)">
                        <path d="M0.254,0.009C0.386,0.009 0.461,-0.056 0.461,-0.149C0.461,-0.229 0.414,-0.288 0.309,-0.307L0.223,-0.322C0.188,-0.328 0.166,-0.343 0.166,-0.373C0.166,-0.403 0.195,-0.43 0.252,-0.43C0.308,-0.43 0.344,-0.404 0.346,-0.358L0.451,-0.358C0.452,-0.453 0.381,-0.526 0.252,-0.526C0.132,-0.526 0.061,-0.457 0.061,-0.37C0.061,-0.287 0.111,-0.238 0.2,-0.222L0.282,-0.207C0.336,-0.198 0.356,-0.179 0.356,-0.149C0.356,-0.116 0.326,-0.091 0.254,-0.091C0.181,-0.091 0.148,-0.124 0.146,-0.172L0.04,-0.172C0.043,-0.06 0.123,0.009 0.254,0.009Z" style="fill:rgb(61,67,74);fill-rule:nonzero;"/>
                    </g>
                    <g transform="matrix(50,0,0,50,789.895,1477.97)">
                        <path d="M0.259,0.009C0.349,0.009 0.408,-0.032 0.452,-0.082L0.524,-0L0.654,-0L0.654,-0.01L0.516,-0.169L0.666,-0.388L0.666,-0.398L0.549,-0.398L0.448,-0.248L0.338,-0.375L0.348,-0.381C0.417,-0.424 0.46,-0.473 0.46,-0.545C0.46,-0.633 0.397,-0.709 0.287,-0.709C0.177,-0.708 0.112,-0.633 0.112,-0.545C0.112,-0.492 0.135,-0.448 0.173,-0.403L0.179,-0.396L0.173,-0.392C0.094,-0.345 0.04,-0.286 0.04,-0.195C0.04,-0.075 0.133,0.009 0.259,0.009ZM0.148,-0.195C0.148,-0.244 0.177,-0.275 0.221,-0.302L0.247,-0.318L0.385,-0.159C0.348,-0.115 0.311,-0.094 0.259,-0.094C0.192,-0.094 0.149,-0.137 0.148,-0.195ZM0.219,-0.545C0.219,-0.579 0.245,-0.609 0.287,-0.609C0.333,-0.609 0.355,-0.578 0.355,-0.545C0.355,-0.51 0.33,-0.486 0.296,-0.466L0.271,-0.451L0.269,-0.454C0.237,-0.49 0.219,-0.514 0.219,-0.545Z" style="fill:rgb(61,67,74);fill-rule:nonzero;"/>
                    </g>
                    <g transform="matrix(50,0,0,50,825.195,1477.97)">
                        <path d="M0.274,0.009C0.408,0.009 0.483,-0.078 0.495,-0.185L0.389,-0.185C0.379,-0.131 0.342,-0.091 0.274,-0.091C0.187,-0.091 0.145,-0.157 0.145,-0.234L0.145,-0.283C0.145,-0.36 0.187,-0.427 0.274,-0.427C0.347,-0.427 0.385,-0.382 0.391,-0.322L0.496,-0.322C0.488,-0.433 0.412,-0.526 0.274,-0.526C0.121,-0.526 0.04,-0.41 0.04,-0.283L0.04,-0.234C0.04,-0.107 0.121,0.009 0.274,0.009Z" style="fill:rgb(61,67,74);fill-rule:nonzero;"/>
                    </g>
                    <g transform="matrix(50,0,0,50,851.995,1477.97)">
                        <path d="M0.287,0.008C0.432,0.008 0.504,-0.09 0.504,-0.207L0.504,-0.517L0.399,-0.517L0.399,-0.21C0.399,-0.134 0.357,-0.091 0.287,-0.091C0.217,-0.091 0.175,-0.134 0.175,-0.21L0.175,-0.517L0.07,-0.517L0.07,-0.207C0.07,-0.09 0.142,0.008 0.287,0.008Z" style="fill:rgb(61,67,74);fill-rule:nonzero;"/>
                    </g>
                    <g transform="matrix(50,0,0,50,880.695,1477.97)">
                        <path d="M0.08,-0L0.185,-0L0.185,-0.281C0.185,-0.37 0.234,-0.412 0.308,-0.412L0.364,-0.412L0.364,-0.517L0.311,-0.517C0.239,-0.517 0.196,-0.469 0.185,-0.431L0.185,-0.517L0.08,-0.517L0.08,-0Z" style="fill:rgb(61,67,74);fill-rule:nonzero;"/>
                    </g>
                    <g transform="matrix(50,0,0,50,900.145,1477.97)">
                        <path d="M0.214,-0L0.335,-0L0.521,-0.507L0.521,-0.517L0.408,-0.517L0.275,-0.12L0.137,-0.517L0.025,-0.517L0.025,-0.507L0.214,-0Z" style="fill:rgb(61,67,74);fill-rule:nonzero;"/>
                    </g>
                    <g transform="matrix(50,0,0,50,926.695,1477.97)">
                        <path d="M0.269,0.009C0.406,0.009 0.477,-0.074 0.491,-0.165L0.386,-0.165C0.375,-0.12 0.338,-0.088 0.269,-0.088C0.188,-0.088 0.146,-0.141 0.144,-0.219L0.498,-0.219L0.498,-0.283C0.498,-0.408 0.428,-0.526 0.27,-0.526C0.117,-0.526 0.04,-0.408 0.04,-0.283L0.04,-0.234C0.04,-0.107 0.116,0.009 0.269,0.009ZM0.145,-0.309C0.152,-0.382 0.196,-0.432 0.27,-0.432C0.348,-0.432 0.388,-0.383 0.394,-0.309L0.145,-0.309Z" style="fill:rgb(61,67,74);fill-rule:nonzero;"/>
                    </g>
                    <g transform="matrix(50,0,0,50,953.595,1477.97)">
                        <path d="M0.254,0.009C0.386,0.009 0.461,-0.056 0.461,-0.149C0.461,-0.229 0.414,-0.288 0.309,-0.307L0.223,-0.322C0.188,-0.328 0.166,-0.343 0.166,-0.373C0.166,-0.403 0.195,-0.43 0.252,-0.43C0.308,-0.43 0.344,-0.404 0.346,-0.358L0.451,-0.358C0.452,-0.453 0.381,-0.526 0.252,-0.526C0.132,-0.526 0.061,-0.457 0.061,-0.37C0.061,-0.287 0.111,-0.238 0.2,-0.222L0.282,-0.207C0.336,-0.198 0.356,-0.179 0.356,-0.149C0.356,-0.116 0.326,-0.091 0.254,-0.091C0.181,-0.091 0.148,-0.124 0.146,-0.172L0.04,-0.172C0.043,-0.06 0.123,0.009 0.254,0.009Z" style="fill:rgb(61,67,74);fill-rule:nonzero;"/>
                    </g>
                </g>
                <g transform="matrix(1.20289,0.30054,-0.34411,1.05058,6355.03,-4136.71)">
                    <circle cx="1812.12" cy="4167.9" r="32.463" style="fill:rgb(45,51,57);"/>
                </g>
                <g transform="matrix(1.25114,0.000229746,-0.000263054,1.09273,4834.11,-3768.38)">
                    <circle cx="1812.12" cy="4167.9" r="32.463" style="fill:rgb(230,198,30);"/>
                </g>
                <g transform="matrix(1.17114,0,0,1.02286,4993.8,-3468.99)">
                    <rect x="1732.57" y="4062.93" width="132.899" height="135.548" style="fill:rgb(45,51,57);"/>
                </g>
                <g transform="matrix(1.17114,0,0,1.02286,4997.06,-3468.04)">
                    <path d="M1797.61,3685.1L1794.33,4194.04C1795.41,4194.32 1824.01,4124.36 1871.62,4125.04C1942.44,4126.05 1948.51,4265.61 1948.31,4265.69C1944.55,4265.19 1977.31,4211.16 2044.54,4212.11C2180.28,4214.02 2192.72,4599.08 2191.91,4602.72C2188.86,4616.52 2180.61,4625.08 2169.92,4629.51C2146.39,4639.25 2123.24,4629.37 2104.33,4618.65C2067.08,4597.55 2064.38,4584.45 2064.07,4572.52C2063.71,4558.78 2066.08,4551.63 2068.71,4541.65C2080.56,4496.7 2187.59,4201.51 2272.95,4153.91C2414.04,4075.21 2504.8,4336.23 2501.09,4514.09C2499.91,4570.52 2400.41,4569.64 2377.26,4573.25C2350.79,4577.38 2298.28,4612.44 2294.47,4656.97C2291.82,4687.98 2319.95,4719.36 2354.78,4730.75C2388.3,4741.71 2431.69,4714.66 2451.88,4702.35C2452,4702.27 2570.48,4631.62 2570.48,4631.62C2570.48,4631.62 2930.61,4389.07 3114.26,4452.91C3297.92,4516.74 3492.67,5023.59 3492.67,5023.59C3492.72,5023.73 3346.29,5017.32 3346.29,5017.32L3412.86,5105.62L3338.96,5122.17L3361.18,5157.64L3335.62,5166.8L3341.65,5179.88C3343.8,5176.01 3329.24,5196.8 3331.37,5192.84C3481.06,4915.11 3772.63,4053.98 3960.28,4058.47" style="fill:none;stroke:white;stroke-width:1px;"/>
                </g>
                <g transform="matrix(10.5319,4.16306,-4.7666,9.19841,6311.6,-15543.8)">
                    <path d="M709.895,1478.42C706.945,1478.42 704.745,1477.42 703.145,1475.82L703.145,1488.42L697.895,1488.42L697.895,1452.12L703.145,1452.12L703.145,1454.27C704.745,1452.67 706.945,1451.67 709.895,1451.67C717.445,1451.67 720.995,1457.47 720.995,1463.82L720.995,1466.27C720.995,1472.62 717.445,1478.42 709.895,1478.42ZM703.145,1466.27C703.145,1470.12 705.095,1473.42 709.445,1473.42C713.795,1473.42 715.745,1470.12 715.745,1466.27L715.745,1463.82C715.745,1459.97 713.795,1456.62 709.445,1456.62C705.095,1456.62 703.145,1459.97 703.145,1463.82L703.145,1466.27ZM726.495,1477.97L726.495,1452.12L731.745,1452.12L731.745,1477.97L726.495,1477.97ZM739.145,1477.97L739.145,1452.12L744.395,1452.12L744.395,1455.67C745.445,1453.57 747.995,1451.67 751.695,1451.67C757.645,1451.67 761.195,1455.87 761.195,1461.07L761.195,1477.97L755.945,1477.97L755.945,1462.82C755.945,1459.47 754.195,1456.67 750.195,1456.67C746.245,1456.67 744.395,1459.72 744.395,1462.82L744.395,1477.97L739.145,1477.97ZM777.395,1478.42C770.845,1478.42 766.845,1474.97 766.695,1469.37L771.995,1469.37C772.095,1471.77 773.745,1473.42 777.395,1473.42C780.995,1473.42 782.495,1472.17 782.495,1470.52C782.495,1469.02 781.495,1468.07 778.795,1467.62L774.695,1466.87C770.245,1466.07 767.745,1463.62 767.745,1459.47C767.745,1455.12 771.295,1451.67 777.295,1451.67C783.745,1451.67 787.295,1455.32 787.245,1460.07L781.995,1460.07C781.895,1457.77 780.095,1456.47 777.295,1456.47C774.445,1456.47 772.995,1457.82 772.995,1459.32C772.995,1460.82 774.095,1461.57 775.845,1461.87L780.145,1462.62C785.395,1463.57 787.745,1466.52 787.745,1470.52C787.745,1475.17 783.995,1478.42 777.395,1478.42ZM802.845,1478.42C796.545,1478.42 791.895,1474.22 791.895,1468.22C791.895,1463.67 794.595,1460.72 798.545,1458.37L798.845,1458.17L798.545,1457.82C796.645,1455.57 795.495,1453.37 795.495,1450.72C795.495,1446.32 798.745,1442.57 804.245,1442.52C809.745,1442.52 812.895,1446.32 812.895,1450.72C812.895,1454.32 810.745,1456.77 807.295,1458.92L806.795,1459.22L812.295,1465.57L817.345,1458.07L823.195,1458.07L823.195,1458.57L815.695,1469.52L822.595,1477.47L822.595,1477.97L816.095,1477.97L812.495,1473.87C810.295,1476.37 807.345,1478.42 802.845,1478.42ZM797.295,1468.22C797.345,1471.12 799.495,1473.27 802.845,1473.27C805.445,1473.27 807.295,1472.22 809.145,1470.02L802.245,1462.07L800.945,1462.87C798.745,1464.22 797.295,1465.77 797.295,1468.22ZM800.845,1450.72C800.845,1452.27 801.745,1453.47 803.345,1455.27L803.445,1455.42L804.695,1454.67C806.395,1453.67 807.645,1452.47 807.645,1450.72C807.645,1449.07 806.545,1447.52 804.245,1447.52C802.145,1447.52 800.845,1449.02 800.845,1450.72ZM838.895,1478.42C831.245,1478.42 827.195,1472.62 827.195,1466.27L827.195,1463.82C827.195,1457.47 831.245,1451.67 838.895,1451.67C845.795,1451.67 849.595,1456.32 849.995,1461.87L844.745,1461.87C844.445,1458.87 842.545,1456.62 838.895,1456.62C834.545,1456.62 832.445,1459.97 832.445,1463.82L832.445,1466.27C832.445,1470.12 834.545,1473.42 838.895,1473.42C842.295,1473.42 844.145,1471.42 844.645,1468.72L849.945,1468.72C849.345,1474.07 845.595,1478.42 838.895,1478.42ZM866.345,1478.37C859.095,1478.37 855.495,1473.47 855.495,1467.62L855.495,1452.12L860.745,1452.12L860.745,1467.47C860.745,1471.27 862.845,1473.42 866.345,1473.42C869.845,1473.42 871.945,1471.27 871.945,1467.47L871.945,1452.12L877.195,1452.12L877.195,1467.62C877.195,1473.47 873.595,1478.37 866.345,1478.37ZM884.695,1477.97L884.695,1452.12L889.945,1452.12L889.945,1456.42C890.495,1454.52 892.645,1452.12 896.245,1452.12L898.895,1452.12L898.895,1457.37L896.095,1457.37C892.395,1457.37 889.945,1459.47 889.945,1463.92L889.945,1477.97L884.695,1477.97ZM910.845,1477.97L901.395,1452.62L901.395,1452.12L906.995,1452.12L913.895,1471.97L920.545,1452.12L926.195,1452.12L926.195,1452.62L916.895,1477.97L910.845,1477.97ZM940.145,1478.42C932.495,1478.42 928.695,1472.62 928.695,1466.27L928.695,1463.82C928.695,1457.57 932.545,1451.67 940.195,1451.67C948.095,1451.67 951.595,1457.57 951.595,1463.82L951.595,1467.02L933.895,1467.02C933.995,1470.92 936.095,1473.57 940.145,1473.57C943.595,1473.57 945.445,1471.97 945.995,1469.72L951.245,1469.72C950.545,1474.27 946.995,1478.42 940.145,1478.42ZM933.945,1462.52L946.395,1462.52C946.095,1458.82 944.095,1456.37 940.195,1456.37C936.495,1456.37 934.295,1458.87 933.945,1462.52ZM966.295,1478.42C959.745,1478.42 955.745,1474.97 955.595,1469.37L960.895,1469.37C960.995,1471.77 962.645,1473.42 966.295,1473.42C969.895,1473.42 971.395,1472.17 971.395,1470.52C971.395,1469.02 970.395,1468.07 967.695,1467.62L963.595,1466.87C959.145,1466.07 956.645,1463.62 956.645,1459.47C956.645,1455.12 960.195,1451.67 966.195,1451.67C972.645,1451.67 976.195,1455.32 976.145,1460.07L970.895,1460.07C970.795,1457.77 968.995,1456.47 966.195,1456.47C963.345,1456.47 961.895,1457.82 961.895,1459.32C961.895,1460.82 962.995,1461.57 964.745,1461.87L969.045,1462.62C974.295,1463.57 976.645,1466.52 976.645,1470.52C976.645,1475.17 972.895,1478.42 966.295,1478.42Z" style="fill:rgb(230,198,30);"/>
                </g>
                <g transform="matrix(1.17819,0,0,0.845438,-1010.48,271.603)">
                    <rect x="6430.94" y="528.772" width="2611.7" height="1626.13" style="fill:rgb(113,128,144);fill-opacity:0;stroke:rgb(105,230,30);stroke-width:1.58px;"/>
                </g>
                <g transform="matrix(1.18225,0,0,1.22228,-1044.6,-338.915)">
                    <rect x="6884.14" y="522.524" width="2152.53" height="1263.61" style="fill-opacity:0;stroke:rgb(0,255,19);stroke-width:1.32px;"/>
                </g>
            </g>
        </g>
    </g>
</svg>
